<?xml version="1.0" standalone="no"?>
<!DOCTYPE svg PUBLIC "-//W3C//DTD SVG 20010904//EN"
 "http://www.w3.org/TR/2001/REC-SVG-20010904/DTD/svg10.dtd">
<svg version="1.0" xmlns="http://www.w3.org/2000/svg"
 width="512.000000pt" height="512.000000pt" viewBox="0 0 512.000000 512.000000"
 preserveAspectRatio="xMidYMid meet">

<g transform="translate(0.000000,512.000000) scale(0.100000,-0.100000)"
fill="#000000" stroke="none">
<path d="M2401 4922 c-5 -10 -12 -32 -14 -48 -3 -20 -9 -28 -20 -26 -17 3 -32
-31 -22 -49 4 -5 18 -14 32 -20 l25 -9 -4 -370 -3 -370 28 0 28 0 -6 113 c-3
61 -10 227 -15 367 l-10 254 31 30 c18 17 26 32 19 36 -5 3 -9 22 -7 41 2 19
0 42 -5 52 -11 22 -45 22 -57 -1z"/>
<path d="M2477 3964 c-13 -14 7 -44 30 -44 20 0 22 3 14 19 -11 19 -35 33 -44
25z"/>
<path d="M2402 3947 c-15 -18 -5 -27 30 -27 23 0 29 4 26 18 -4 21 -41 28 -56
9z"/>
<path d="M2717 3443 c-4 -6 -5 -71 -2 -143 3 -72 1 -129 -3 -126 -5 3 -30 41
-56 86 -26 44 -51 78 -56 75 -5 -3 -10 0 -12 7 -3 7 -11 9 -24 3 -10 -4 -23
-9 -29 -9 -26 -3 -105 -31 -105 -38 0 -4 -7 -8 -15 -8 -23 0 -44 -51 -33 -79
9 -25 -2 -41 -30 -41 -23 0 -33 -43 -46 -187 -3 -23 -7 -51 -11 -62 -3 -10 -7
-65 -8 -121 -2 -85 -5 -104 -20 -115 -14 -10 -26 -11 -49 -3 -24 9 -33 7 -46
-7 -16 -17 0 -17 328 -11 354 6 432 10 580 27 47 5 109 9 138 9 49 0 52 1 48
23 -3 12 -7 63 -11 114 -6 102 -32 206 -45 183 -4 -8 -11 -73 -15 -144 -4 -80
-10 -123 -16 -115 -5 8 -9 27 -9 42 0 16 -4 26 -10 22 -5 -3 -10 -29 -10 -56
0 -46 -2 -50 -22 -47 -27 4 -35 30 -38 123 -2 65 -17 145 -19 102 -1 -14 -7
-16 -27 -11 -17 4 -29 2 -34 -6 -6 -9 -12 -6 -24 12 -12 18 -14 32 -7 56 10
33 4 72 -10 72 -4 0 -11 17 -15 38 -10 59 -33 123 -54 150 -11 13 -20 33 -20
43 0 11 -5 19 -11 19 -14 0 -48 41 -49 57 0 7 -20 22 -44 33 -24 11 -46 25
-48 32 -3 9 -6 9 -11 1z"/>
<path d="M3165 2635 c-169 -17 -494 -35 -626 -35 -162 -1 -277 -35 -324 -96
-15 -19 -31 -32 -36 -29 -5 4 -9 2 -9 -3 0 -6 -9 -8 -20 -5 -25 7 -68 -40
-109 -117 -79 -148 -82 -325 -7 -465 30 -56 16 -56 -57 0 -39 30 -102 78 -140
105 l-67 49 22 -40 c13 -22 47 -65 76 -94 36 -37 52 -61 52 -80 0 -17 -4 -24
-12 -19 -6 4 -9 3 -7 -2 25 -48 44 -112 54 -177 5 -33 9 -37 31 -33 46 9 122
51 128 71 3 11 12 28 20 37 12 17 16 17 60 2 46 -16 83 -54 52 -54 -36 0 -47
-73 -19 -120 15 -27 15 -30 -1 -55 -21 -32 -18 -37 28 -38 41 -1 46 -11 14
-28 -14 -8 -41 -9 -82 -4 -34 4 -102 9 -152 11 -78 3 -97 0 -141 -20 -108 -51
-148 -159 -146 -396 2 -169 36 -290 102 -358 61 -63 231 -112 389 -112 l47 0
-33 -20 c-18 -11 -40 -20 -50 -21 -14 0 -13 -2 4 -11 27 -12 34 -50 27 -143
-2 -39 -5 -87 -6 -107 -1 -45 -24 -51 -56 -16 -19 20 -22 20 -39 5 -24 -22
-55 -21 -179 3 -185 36 -309 92 -377 172 -39 46 -44 44 -20 -8 44 -93 255
-184 498 -214 127 -16 517 -8 656 14 205 32 457 105 504 145 10 9 29 35 43 59
22 38 26 56 28 150 2 100 2 102 -4 27 -7 -78 -16 -115 -30 -115 -9 0 -1 215 9
265 5 22 8 40 7 41 -1 1 -24 -24 -52 -56 -27 -32 -56 -57 -62 -55 -19 6 -53
-68 -53 -114 0 -22 7 -66 15 -98 20 -77 20 -76 -24 -101 -73 -41 -78 -34 -86
103 -3 64 -9 93 -20 101 -8 6 -15 19 -15 28 0 9 -7 19 -15 22 -21 9 -19 24 4
24 34 0 178 79 231 127 56 50 110 144 110 192 0 16 5 31 10 33 15 5 27 538 13
538 -6 0 -13 9 -16 19 -5 20 -74 61 -103 61 -10 0 -26 -7 -36 -17 -17 -15 -18
-14 -18 15 0 18 0 35 0 40 1 4 9 6 20 4 22 -4 45 34 55 91 9 48 25 48 26 0 0
-21 4 -47 9 -58 6 -14 9 -4 8 36 -1 31 2 60 5 65 3 5 27 11 54 12 70 3 199 38
250 68 58 34 124 124 164 227 31 76 33 91 34 197 0 113 -1 116 -38 195 -49
103 -107 164 -161 170 -11 2 -48 8 -80 14 -73 13 -161 12 -331 -4z m282 -137
c113 -52 159 -261 91 -409 -33 -73 -101 -143 -153 -159 -22 -6 -78 -14 -125
-17 -81 -5 -89 -4 -146 25 -58 29 -124 90 -124 114 0 7 -11 24 -25 38 -18 19
-27 43 -33 90 -11 73 -2 123 27 159 12 14 25 36 30 47 29 65 258 150 371 136
25 -3 64 -14 87 -24z m-809 -25 c93 -25 143 -74 173 -173 30 -99 22 -179 -26
-276 -61 -125 -136 -170 -297 -181 -108 -8 -173 14 -233 78 -25 27 -54 68 -64
91 -10 24 -28 52 -40 62 -26 24 -26 31 -1 63 11 14 20 35 20 47 1 78 64 167
166 232 64 41 94 53 154 64 68 12 77 11 148 -7z m-550 -568 c-3 -3 -9 2 -12
12 -6 14 -5 15 5 6 7 -7 10 -15 7 -18z m1007 -165 c9 -15 18 -188 10 -217 -5
-23 -34 -41 -95 -57 -19 -6 -22 -5 -10 4 13 9 13 12 -2 21 -15 8 -18 24 -17
82 0 40 4 92 7 117 7 43 9 45 47 51 22 3 43 7 47 8 4 0 10 -3 13 -9z m-552
-37 c-7 -2 -19 -2 -25 0 -7 3 -2 5 12 5 14 0 19 -2 13 -5z m-120 -10 c-7 -2
-19 -2 -25 0 -7 3 -2 5 12 5 14 0 19 -2 13 -5z m781 -224 c15 -78 3 -119 -37
-119 -18 0 -19 5 -14 65 4 36 9 70 12 75 13 20 33 9 39 -21z m-64 -54 l0 -65
-33 0 c-36 0 -53 -15 -97 -82 -14 -20 -28 -34 -33 -29 -4 4 -6 50 -5 102 l3
94 75 21 c41 12 78 22 83 23 4 1 7 -28 7 -64z m-530 33 c0 -28 -43 -57 -55
-38 -4 6 -16 10 -27 10 -27 0 -16 12 25 27 43 15 57 16 57 1z m155 -20 c-45
-20 -65 -22 -65 -9 0 12 82 40 95 33 5 -3 -9 -14 -30 -24z m185 -103 c0 -113
-3 -118 -48 -87 -15 10 -35 22 -46 25 -21 8 -68 -18 -105 -57 -43 -46 -51 -36
-51 67 0 50 4 97 8 104 4 6 43 16 87 22 44 6 94 15 110 20 17 5 33 10 38 10 4
1 7 -46 7 -104z m-657 48 l47 -6 0 -113 c0 -131 6 -128 -100 -57 -70 46 -95
51 -158 29 -22 -8 -43 -12 -46 -9 -9 9 -7 158 2 167 7 8 159 1 255 -11z m-283
-83 l0 -91 -77 3 c-78 3 -78 3 -75 30 4 40 50 116 80 133 15 8 37 14 50 15 21
0 22 -3 22 -90z m660 -15 c0 -58 -3 -105 -7 -105 -3 0 -25 11 -47 24 -71 40
-86 40 -159 -4 -36 -22 -71 -40 -76 -40 -7 0 -11 39 -11 109 0 96 2 110 18
114 9 3 77 5 150 6 l132 1 0 -105z m548 -50 c-3 -93 -8 -118 -23 -135 -39 -43
-45 -28 -45 104 l0 123 33 11 c17 5 34 10 36 11 2 1 2 -51 -1 -114z m-84 83
c0 -10 -1 -67 -2 -127 l-2 -110 -32 -3 c-26 -2 -40 -13 -71 -58 -21 -30 -42
-56 -47 -58 -6 -2 -10 43 -10 112 l0 116 37 52 c58 84 75 99 103 96 16 -2 25
-9 24 -20z m-224 -99 l40 -21 0 -129 c0 -77 -4 -129 -10 -129 -5 0 -24 9 -42
20 -48 29 -70 25 -130 -25 -30 -25 -58 -45 -62 -45 -3 0 -6 55 -6 123 l0 122
61 53 c68 58 88 62 149 31z m-667 -42 c34 -24 70 -47 80 -50 14 -5 17 -21 19
-94 1 -48 3 -106 4 -128 1 -22 -1 -43 -3 -47 -5 -10 -41 9 -113 57 -49 33 -60
36 -100 31 -25 -3 -55 -8 -67 -12 l-23 -6 0 135 0 135 28 10 c62 23 110 15
175 -31z m369 -4 c21 -12 42 -23 48 -23 6 0 10 -50 10 -135 0 -74 -2 -135 -4
-135 -2 0 -30 14 -62 31 -67 35 -82 34 -160 -17 -30 -18 -59 -34 -64 -34 -6 0
-10 51 -10 129 l0 129 48 28 c122 70 125 71 194 27z m-604 -120 l-3 -138 -52
-3 c-29 -2 -71 2 -94 8 l-42 12 6 101 c10 157 0 141 92 148 44 3 84 6 88 7 4
1 6 -60 5 -135z m1202 -5 c0 -49 -22 -154 -40 -193 l-18 -40 -1 116 c-1 111 0
116 22 127 32 16 37 14 37 -10z m-82 -130 l3 -137 -33 -24 c-32 -24 -101 -57
-119 -57 -5 0 -9 47 -9 105 0 103 0 105 34 152 53 74 85 105 104 101 15 -3 17
-19 20 -140z m-218 11 l40 -21 0 -103 c0 -73 -4 -108 -13 -117 -17 -17 -202
-62 -222 -54 -12 4 -15 27 -15 108 l0 103 62 53 c69 58 88 62 148 31z m-675
-45 c37 -25 78 -49 91 -54 22 -9 24 -15 24 -78 0 -38 -3 -91 -6 -117 l-7 -47
-111 7 c-61 3 -127 9 -146 13 l-35 8 -3 141 -3 141 43 15 c66 23 82 21 153
-29z m377 -6 l59 -33 -3 -110 -3 -110 -60 -12 c-33 -7 -98 -12 -145 -10 l-85
2 -3 113 c-2 76 1 112 8 112 6 0 41 18 77 40 37 22 73 40 81 40 8 0 41 -15 74
-32z m-598 -101 c8 -130 3 -151 -28 -141 -63 18 -129 106 -143 187 -10 62 -3
67 85 67 l79 0 7 -113z m-176 -62 c-3 -3 -13 1 -22 10 -9 9 -16 22 -16 28 0 6
10 2 22 -10 12 -13 19 -25 16 -28z m1337 -269 c4 -25 3 -46 -3 -50 -12 -7 -19
19 -27 95 -6 52 -6 53 9 27 8 -16 18 -48 21 -72z m-579 -52 c0 -44 -2 -102 -5
-130 l-6 -49 -45 -6 c-76 -10 -75 -11 -74 109 1 59 2 112 3 119 1 13 86 43
111 40 12 -2 15 -19 16 -83z m166 74 c12 -10 18 -37 22 -106 3 -51 8 -97 11
-102 6 -10 -62 -26 -72 -16 -3 3 -8 58 -10 121 -4 107 -2 115 15 115 10 0 25
-6 34 -12z"/>
<path d="M3137 2243 c-4 -3 -7 -35 -7 -70 l0 -63 70 0 70 0 0 70 0 70 -63 0
c-35 0 -67 -3 -70 -7z"/>
<path d="M2330 2121 c0 -54 4 -70 16 -75 27 -10 110 -6 122 6 12 12 16 95 6
122 -5 12 -21 16 -75 16 l-69 0 0 -69z"/>
<path d="M3270 1601 c0 -5 5 -13 10 -16 6 -3 10 -2 10 4 0 5 -4 13 -10 16 -5
3 -10 2 -10 -4z"/>
<path d="M2075 1549 c-4 -6 -5 -13 -2 -16 7 -7 27 6 27 18 0 12 -17 12 -25 -2z"/>
<path d="M1900 527 c0 -7 5 -18 11 -24 10 -10 16 -31 18 -59 1 -17 37 -55 45
-47 3 3 6 -1 6 -10 0 -29 48 1 55 35 8 36 -12 61 -77 94 -55 28 -58 28 -58 11z"/>
</g>
</svg>
